<svg id="visual" viewBox="0 0 900 600" width="900" height="600" xmlns="http://www.w3.org/2000/svg" xmlns:xlink="http://www.w3.org/1999/xlink" version="1.1"><path d="M0 493L15 490.2C30 487.3 60 481.7 90 481.5C120 481.3 150 486.7 180 484.7C210 482.7 240 473.3 270 472.8C300 472.3 330 480.7 360 486.2C390 491.7 420 494.3 450 488.7C480 483 510 469 540 462.2C570 455.3 600 455.7 630 461.7C660 467.7 690 479.3 720 481.5C750 483.7 780 476.3 810 472.2C840 468 870 467 885 466.5L900 466L900 601L885 601C870 601 840 601 810 601C780 601 750 601 720 601C690 601 660 601 630 601C600 601 570 601 540 601C510 601 480 601 450 601C420 601 390 601 360 601C330 601 300 601 270 601C240 601 210 601 180 601C150 601 120 601 90 601C60 601 30 601 15 601L0 601Z" fill="#1a0c6d"></path><path d="M0 508L15 507.8C30 507.7 60 507.3 90 504.8C120 502.3 150 497.7 180 497.2C210 496.7 240 500.3 270 500.3C300 500.3 330 496.7 360 494.2C390 491.7 420 490.3 450 492.8C480 495.3 510 501.7 540 504.3C570 507 600 506 630 500.8C660 495.7 690 486.3 720 488C750 489.7 780 502.3 810 507.3C840 512.3 870 509.7 885 508.3L900 507L900 601L885 601C870 601 840 601 810 601C780 601 750 601 720 601C690 601 660 601 630 601C600 601 570 601 540 601C510 601 480 601 450 601C420 601 390 601 360 601C330 601 300 601 270 601C240 601 210 601 180 601C150 601 120 601 90 601C60 601 30 601 15 601L0 601Z" fill="#2c4092"></path><path d="M0 516L15 513.7C30 511.3 60 506.7 90 509C120 511.3 150 520.7 180 525.7C210 530.7 240 531.3 270 528.2C300 525 330 518 360 512.5C390 507 420 503 450 501.3C480 499.7 510 500.3 540 504.7C570 509 600 517 630 516.8C660 516.7 690 508.3 720 504.8C750 501.3 780 502.7 810 504.8C840 507 870 510 885 511.5L900 513L900 601L885 601C870 601 840 601 810 601C780 601 750 601 720 601C690 601 660 601 630 601C600 601 570 601 540 601C510 601 480 601 450 601C420 601 390 601 360 601C330 601 300 601 270 601C240 601 210 601 180 601C150 601 120 601 90 601C60 601 30 601 15 601L0 601Z" fill="#4e6fb0"></path><path d="M0 538L15 537.5C30 537 60 536 90 536C120 536 150 537 180 537.3C210 537.7 240 537.3 270 539.3C300 541.3 330 545.7 360 547.8C390 550 420 550 450 545.5C480 541 510 532 540 531C570 530 600 537 630 540.7C660 544.3 690 544.7 720 544.3C750 544 780 543 810 539C840 535 870 528 885 524.5L900 521L900 601L885 601C870 601 840 601 810 601C780 601 750 601 720 601C690 601 660 601 630 601C600 601 570 601 540 601C510 601 480 601 450 601C420 601 390 601 360 601C330 601 300 601 270 601C240 601 210 601 180 601C150 601 120 601 90 601C60 601 30 601 15 601L0 601Z" fill="#7b9ecb"></path><path d="M0 549L15 548C30 547 60 545 90 546.8C120 548.7 150 554.3 180 554.3C210 554.3 240 548.7 270 549.5C300 550.3 330 557.7 360 561.2C390 564.7 420 564.3 450 564.5C480 564.7 510 565.3 540 561.8C570 558.3 600 550.7 630 550.5C660 550.3 690 557.7 720 559.3C750 561 780 557 810 554C840 551 870 549 885 548L900 547L900 601L885 601C870 601 840 601 810 601C780 601 750 601 720 601C690 601 660 601 630 601C600 601 570 601 540 601C510 601 480 601 450 601C420 601 390 601 360 601C330 601 300 601 270 601C240 601 210 601 180 601C150 601 120 601 90 601C60 601 30 601 15 601L0 601Z" fill="#b4cce3"></path><path d="M0 577L15 577.7C30 578.3 60 579.7 90 579.8C120 580 150 579 180 577.7C210 576.3 240 574.7 270 572.5C300 570.3 330 567.7 360 568.3C390 569 420 573 450 575.8C480 578.7 510 580.3 540 580.3C570 580.3 600 578.7 630 577.3C660 576 690 575 720 574C750 573 780 572 810 572.3C840 572.7 870 574.3 885 575.2L900 576L900 601L885 601C870 601 840 601 810 601C780 601 750 601 720 601C690 601 660 601 630 601C600 601 570 601 540 601C510 601 480 601 450 601C420 601 390 601 360 601C330 601 300 601 270 601C240 601 210 601 180 601C150 601 120 601 90 601C60 601 30 601 15 601L0 601Z" fill="#f7fafc"></path></svg>